<?xml version="1.0" standalone="no"?><!DOCTYPE svg PUBLIC "-//W3C//DTD SVG 1.1//EN" "http://www.w3.org/Graphics/SVG/1.1/DTD/svg11.dtd"><svg t="1617291397854" class="icon" viewBox="0 0 1024 1024" version="1.1" xmlns="http://www.w3.org/2000/svg" p-id="2794" xmlns:xlink="http://www.w3.org/1999/xlink" width="200" height="200"><defs><style type="text/css"></style></defs><path d="M515.072 719.872c-15.36 0-30.72-13.312-30.72-29.696V675.84v-13.312-29.696h-82.944c-8.192 0-14.336-3.072-21.504-9.216-5.12-5.12-9.216-14.336-9.216-22.528 1.024-16.384 13.312-30.72 29.696-30.72h81.92v-1.024-25.6H399.36c-15.36 0-29.696-13.312-29.696-29.696 0-8.192 3.072-15.36 9.216-22.528 5.12-5.12 13.312-9.216 21.504-9.216h53.248l-1.024-2.048c-11.264-17.408-22.528-36.864-31.744-54.272l-1.024-2.048c-12.288-20.48-23.552-39.936-35.84-58.368-3.072-4.096-12.288-18.432-1.024-31.744 5.12-8.192 15.36-12.288 26.624-12.288 4.096 0 8.192 1.024 11.264 2.048 13.312 4.096 21.504 16.384 24.576 24.576 14.336 26.624 29.696 52.224 44.032 77.824l23.552 41.984 17.408-31.744 14.336-25.6c11.264-20.48 22.528-39.936 33.792-58.368 4.096-8.192 11.264-15.36 17.408-22.528 4.096-4.096 12.288-7.168 17.408-7.168 13.312 0 25.6 8.192 30.72 20.48 3.072 7.168 1.024 15.36-2.048 21.504-14.336 25.6-29.696 51.2-44.032 76.8l-11.264 18.432-14.336 26.624h53.248c15.36 0 28.672 13.312 28.672 30.72s-13.312 30.72-28.672 30.72H544.768v-1.024 25.6h81.92c14.336 0 26.624 10.24 29.696 23.552 4.096 13.312-4.096 30.72-17.408 36.864-3.072 2.048-7.168 2.048-10.24 2.048H542.72v17.408c-1.024 14.336 0 26.624 0 38.912 1.024 5.12-2.048 13.312-8.192 18.432-1.024 6.144-11.264 10.24-19.456 10.24z" p-id="2795"></path><path d="M870.4 551.936c-22.528 0-39.936-17.408-39.936-39.936s17.408-39.936 39.936-39.936c21.504 0 39.936 17.408 39.936 39.936s-18.432 39.936-39.936 39.936z" p-id="2796"></path><path d="M855.04 575.488c-17.408 0-32.768 12.288-37.888 28.672-39.936 130.048-159.744 225.28-303.104 225.28-176.128 0-317.44-143.36-317.44-320.512s143.36-320.512 317.44-320.512c141.312 0 263.168 95.232 303.104 226.304 5.12 16.384 19.456 28.672 37.888 28.672 21.504 0 39.936-17.408 39.936-39.936 0-4.096-1.024-8.192-2.048-11.264-49.152-163.84-200.704-281.6-378.88-281.6-219.136 0-396.288 179.2-396.288 398.336s178.176 398.336 396.288 398.336c175.104 0 324.608-114.688 376.832-274.432 2.048-5.12 4.096-10.24 4.096-16.384-1.024-23.552-18.432-40.96-39.936-40.96z" p-id="2797"></path></svg>