<?xml version="1.0" standalone="no"?><!DOCTYPE svg PUBLIC "-//W3C//DTD SVG 1.1//EN" "http://www.w3.org/Graphics/SVG/1.1/DTD/svg11.dtd"><svg t="1617367679720" class="icon" viewBox="0 0 1024 1024" version="1.1" xmlns="http://www.w3.org/2000/svg" p-id="2039" xmlns:xlink="http://www.w3.org/1999/xlink" width="200" height="200"><defs><style type="text/css"></style></defs><path d="M728.09157 512.239454l0.054235-80.658018L593.501222 431.581436l113.358791-121.099079-63.721277-40.343847L526.32117 419.554518l-95.563496-149.416008-63.711044 40.343847 91.810009 121.099079L324.198753 431.581436l0.37453 80.658018 161.210635 0.12382 0 80.790024-161.210635-0.212848-0.37453 81.004919 161.585165 0 0 107.714234 80.790024 0L566.573943 673.945369l161.571862 0-0.054235-81.004919-161.517627 0.212848 0-80.790024L728.09157 512.239454zM512.708128 108.411105c166.393681 0 309.274856 100.604302 371.164415 244.296959l6.053879-1.620917c1.583055 14.915711 14.513552 26.551726 30.213116 26.551726l20.246113 0c16.788361 0 30.376844-13.271258 30.376844-29.635971L970.762495 110.883413c0-16.375969-13.588483-29.635971-30.376844-29.635971l-20.246113 0c-16.766872 0-30.376844 13.260002-30.376844 29.635971l0 96.846722C800.901853 97.877191 665.018046 27.629267 512.708128 27.629267c-249.408373 0-454.81458 188.357925-481.738789 430.585759l81.397868 0C138.826835 260.72614 307.97935 108.411105 512.708128 108.411105zM913.072585 566.354955C886.684588 763.925706 717.503421 916.312372 512.708128 916.312372c-166.394704 0-309.288159-100.611465-371.173624-244.319471l-5.669116 1.51961c-1.740644-14.71412-14.582113-26.149567-30.169113-26.149567L85.437881 647.362944c-16.775059 0-30.373775 13.241582-30.373775 29.563316l0 236.46662c0 16.33299 13.599739 29.574572 30.373775 29.574572l20.259416 0c16.775059 0 30.376844-13.241582 30.376844-29.574572l0-95.888907c88.87005 109.564371 224.566592 179.600471 376.633986 179.600471 249.474888 0 454.906677-188.447976 481.758232-430.750511L913.072585 566.353932z" p-id="2040"></path></svg>